<!DOCTYPE svg PUBLIC "-//W3C//DTD SVG 1.1//EN" "http://www.w3.org/Graphics/SVG/1.1/DTD/svg11.dtd">
<!-- Uploaded to: SVG Repo, www.svgrepo.com, Transformed by: SVG Repo Mixer Tools -->
<svg fill="#A6ABC8" height="800px" width="800px" version="1.1" id="Layer_1" xmlns="http://www.w3.org/2000/svg" xmlns:xlink="http://www.w3.org/1999/xlink" viewBox="0 0 512 512" xml:space="preserve" stroke="#A6ABC8">
<g id="SVGRepo_bgCarrier" stroke-width="0"/>
<g id="SVGRepo_tracerCarrier" stroke-linecap="round" stroke-linejoin="round"/>
<g id="SVGRepo_iconCarrier"> <g> <g> <g> <path d="M425.973,210.133c-2.987-25.067-16.747-47.573-37.653-61.653l-57.28-39.893c-0.427-0.96-0.427-4.373-0.427-5.547V84.8 c16.533-2.453,32-13.44,32-31.787v-16.96C362.613,14.827,341.92,0,323.253,0H188.64c-18.667,0-39.36,14.827-39.36,36.053v16.96 c0,18.347,15.36,29.333,32,31.787v18.347c0.107,1.813,0,3.52-0.32,5.333l-58.453,40c-20.587,13.653-33.813,36.373-36.587,61.867 c-0.32,0.96-0.533,1.92-0.64,2.987c0.107,0.533,0.213,1.067,0.32,1.6c-0.107,1.92-0.32,3.733-0.32,5.653v221.547 c0,38.507,31.147,69.76,69.653,69.867h202.133c38.507-0.107,69.653-31.36,69.653-69.867v-228.8 C426.613,212.267,426.293,211.2,425.973,210.133z M170.613,53.013v-16.96c0-7.253,9.067-14.72,18.027-14.72h134.72 c8.853,0,18.027,7.467,18.027,14.72v16.96C341.387,60.48,330.72,64,323.36,64H188.64C181.28,64,170.613,60.48,170.613,53.013z M134.347,166.08l58.56-40c9.707-6.507,9.707-17.173,9.707-22.933V85.333H309.28v17.813c0,5.76,0,16.427,9.493,22.827 l57.493,40.213c12.907,8.64,22.293,21.547,26.453,36.587H108.747C112.48,187.733,121.547,174.613,134.347,166.08z M356.96,490.667H154.933c-24.64,0-44.8-18.667-47.68-42.667h297.493C401.76,472,381.6,490.667,356.96,490.667z M405.28,426.667 H106.613V224H405.28V426.667z"/> <path d="M191.947,362.667h21.333V384c0,5.867,4.8,10.667,10.667,10.667h64c5.867,0,10.667-4.8,10.667-10.667v-21.333h21.333 c5.867,0,10.667-4.8,10.667-10.667v-53.333c0-5.867-4.8-10.667-10.667-10.667h-21.333v-21.333c0-5.867-4.8-10.667-10.667-10.667 h-64c-5.867,0-10.667,4.8-10.667,10.667V288h-21.333c-5.867,0-10.667,4.8-10.667,10.667V352 C181.28,357.867,186.08,362.667,191.947,362.667z M202.613,309.333h21.333c5.867,0,10.667-4.8,10.667-10.667v-21.333h42.667 v21.333c0,5.867,4.8,10.667,10.667,10.667h21.333v32h-21.333c-5.867,0-10.667,4.8-10.667,10.667v21.333h-42.667V352 c0-5.867-4.8-10.667-10.667-10.667h-21.333V309.333z"/> </g> </g> </g> </g>
</svg>